PathFileType	4	(X/Y/Z)	/Users/niels/Desktop/University/Third Semester/Perception and Action/Exam/Gymnastics Motion Tracking/Code for Gym Tracking/Analyzed Data/Webcam_Backflip/id6_4_pure_Sports2D/id6_4_pure_Sports2D_px_person00.trc
DataRate	CameraRate	NumFrames	NumMarkers	Units	OrigDataRate	OrigDataStartFrame	OrigNumFrames
29.8125	29.8125	7	22	m	29.8125	60	160
Frame#	Time	Hip			RHip			RKnee			RAnkle			RBigToe			RSmallToe			RHeel			LHip			LKnee			LAnkle			LBigToe			LSmallToe			LHeel			Neck			Head			Nose			RShoulder			RElbow			RWrist			LShoulder			LElbow			LWrist		
		X1	Y1	Z1	X2	Y2	Z2	X3	Y3	Z3	X4	Y4	Z4	X5	Y5	Z5	X6	Y6	Z6	X7	Y7	Z7	X8	Y8	Z8	X9	Y9	Z9	X10	Y10	Z10	X11	Y11	Z11	X12	Y12	Z12	X13	Y13	Z13	X14	Y14	Z14	X15	Y15	Z15	X16	Y16	Z16	X17	Y17	Z17	X18	Y18	Z18	X19	Y19	Z19	X20	Y20	Z20	X21	Y21	Z21	X22	Y22	Z22
60	2.012578616352201	0.8857658874512707	-0.5640931164443841	0.0	0.8868321011641126	-0.5632475068310789	0.0	0.9059138459143834	-0.6654068983394101	0.0	0.8941039642854698	-0.7601798705375683	0.0	0.9189743641946512	-0.782211536700578	0.0	0.9106316243823236	-0.7830170162419556	0.0	0.8839825508013418	-0.7728118692860537	0.0	0.8876458997085247	-0.5616004533167478	0.0	0.9042404144678754	-0.6636999143226205	0.0	0.8949905175502242	-0.757870133444739	0.0	0.9163978459698826	-0.7806681322678306	0.0	0.9130576542854845	-0.7742376308565164	0.0	0.8858732823141112	-0.7661455750260585	0.0	0.8872604187862769	-0.4221498549529077	0.0	0.8927937795297031	-0.3697177365241883	0.0	0.9067187004346472	-0.39035216798055594	0.0	0.884880016658716	-0.42833583649360335	0.0	0.9176412500382274	-0.3738398947214666	0.0	0.943165752776449	-0.3188601429335015	0.0	0.8801190574192757	-0.4276127070227263	0.0	0.905971735751667	-0.3775436694591124	0.0	0.9174799808929968	-0.3450028742999515	0.0
61	2.0461215932914043	0.8881211071234805	-0.5809200345590523	0.0	0.8888016926515941	-0.580391875194617	0.0	0.9062639137089231	-0.6826652794567674	0.0	0.8917103459441534	-0.7746423117821081	0.0	0.9125470216390835	-0.7939717170725276	0.0	0.9054112565129575	-0.7946591382428564	0.0	0.8812690530315334	-0.7860854465704294	0.0	0.8900304103548594	-0.5787927693365885	0.0	0.9039768214888914	-0.6805818400797174	0.0	0.8923280867088135	-0.7725512155027437	0.0	0.9104968633470668	-0.7929478853457057	0.0	0.9064746100622061	-0.7881033076963634	0.0	0.8835535264885399	-0.7798440009270617	0.0	0.8890858418268011	-0.4375968340673331	0.0	0.894523407747482	-0.38693460262943513	0.0	0.9083638557815141	-0.40521360668964673	0.0	0.8871806333043524	-0.4428535695354603	0.0	0.9165497762471416	-0.38589799401767044	0.0	0.9371140036975004	-0.32902598422900264	0.0	0.8807252882880832	-0.4427437528215368	0.0	0.9041858676370829	-0.3902814332170604	0.0	0.9137452866390625	-0.3521797776712183	0.0
62	2.079664570230608	0.8897319014293769	-0.5970932679244565	0.0	0.8901104574162553	-0.5968763884650745	0.0	0.9058487479004091	-0.6992061291009438	0.0	0.8893856932747614	-0.7885071157334327	0.0	0.9060381109344436	-0.8053565338311085	0.0	0.9000144585112545	-0.8061252593576907	0.0	0.8789085589301827	-0.7988177831943288	0.0	0.891775447698074	-0.5952499658548855	0.0	0.9032195528657493	-0.6968317239413451	0.0	0.8896637574335953	-0.7866487680467024	0.0	0.9050803508294469	-0.8047023879272541	0.0	0.9002223961908213	-0.801901230728573	0.0	0.881249865106791	-0.7930429589552709	0.0	0.890818340738532	-0.4524124821772504	0.0	0.8953726287579923	-0.40397261295057163	0.0	0.9101520568394709	-0.4198848513598715	0.0	0.8895305506224751	-0.4573526092862727	0.0	0.9163537380858031	-0.39780314513776516	0.0	0.9323334196751507	-0.3390646792489014	0.0	0.8818763697842755	-0.4577012391364726	0.0	0.9049087859925824	-0.40412194713739136	0.0	0.9152486783455982	-0.3603136791116241	0.0
63	2.113207547169811	0.8907234686539076	-0.6110573217300744	0.0	0.8909734182140802	-0.6109921925370201	0.0	0.9048006787045894	-0.7132031094445017	0.0	0.8874769530596923	-0.8004014237619852	0.0	0.9006828706815236	-0.8152086013051345	0.0	0.8955208704207918	-0.8162726222946857	0.0	0.8773008767545236	-0.8098961735846661	0.0	0.8928690919287272	-0.6092633221014513	0.0	0.9021630035716532	-0.7107044938980258	0.0	0.8874531952780055	-0.7986853108052482	0.0	0.9010608419283391	-0.8147425996930383	0.0	0.8956020847714257	-0.8138717726678969	0.0	0.8794012296946163	-0.8045025520661395	0.0	0.8921270017102724	-0.46551104525236153	0.0	0.8951532085983837	-0.4187908113669442	0.0	0.9115204933911318	-0.4331201414072795	0.0	0.8915800358736967	-0.4707705491317495	0.0	0.9169403372551249	-0.40977493908462675	0.0	0.9297107631231694	-0.3500244470881288	0.0	0.8833495924448725	-0.4712786662395536	0.0	0.9074722451050361	-0.4185446363693431	0.0	0.9198722025775407	-0.37097848620352736	0.0
64	2.1467505241090143	0.8912111063509678	-0.6212912239653794	0.0	0.8915146093292771	-0.621154673155514	0.0	0.9034560097472076	-0.7229151762162503	0.0	0.8861990548183225	-0.8089049852090875	0.0	0.8975833846942898	-0.8221863999413245	0.0	0.8929705624640171	-0.8236593281632525	0.0	0.8766309786469219	-0.8180801904040699	0.0	0.8934052485098195	-0.6193246328086627	0.0	0.9011044164233759	-0.7205303465301369	0.0	0.8859878733298804	-0.8072127073223888	0.0	0.8992626614495532	-0.8217872849430361	0.0	0.8936985805617181	-0.8221013093203211	0.0	0.8781618694240585	-0.8128889156490026	0.0	0.8929125814729263	-0.475805991561404	0.0	0.8941543801291109	-0.4294870008298997	0.0	0.9123485094029564	-0.44367765129436776	0.0	0.893032520136557	-0.481963186023447	0.0	0.9178030089580448	-0.42245059750230063	0.0	0.9295692618690193	-0.3635462170532737	0.0	0.8850441183231388	-0.4823317618051506	0.0	0.910889485456011	-0.43333978855642546	0.0	0.925992334692619	-0.38581334564622877	0.0
65	2.180293501048218	0.8913024458482315	-0.6264975673592672	0.0	0.8917322567701633	-0.6261510605160677	0.0	0.9022257489009896	-0.7271218121418574	0.0	0.8856153367603979	-0.8129047861171828	0.0	0.8974712796113442	-0.8252174577513396	0.0	0.8930531789254637	-0.8270296745880237	0.0	0.8768451013210079	-0.822281028372314	0.0	0.8935860946258843	-0.624292350401081	0.0	0.900366368088307	-0.7250734174104223	0.0	0.8853828335039307	-0.8111889744852455	0.0	0.9001718016549322	-0.8248212536242385	0.0	0.8948929883885368	-0.8253272168290896	0.0	0.8774370674030157	-0.8171457632881994	0.0	0.893408943351043	-0.48199563372128323	0.0	0.8931945736904596	-0.43456714439168764	0.0	0.9130990671006344	-0.4502799653975107	0.0	0.8937687245568878	-0.4896642276256241	0.0	0.9183343687725963	-0.43608249762458656	0.0	0.9313950816715064	-0.3809548473293618	0.0	0.886958249602203	-0.48964922382284215	0.0	0.914151479289452	-0.44839345386477186	0.0	0.932480558428254	-0.4056810459024203	0.0
66	2.213836477987421	0.8911781875575612	-0.625913020208306	0.0	0.8916334542501567	-0.6253630278745049	0.0	0.901504542852766	-0.7254440821303584	0.0	0.8856180813600617	-0.8119540165197732	0.0	0.9004110931587623	-0.8238643250009331	0.0	0.8957917212217765	-0.8258116741213791	0.0	0.8776423791706883	-0.8219630775386957	0.0	0.893642760235284	-0.6235334275030132	0.0	0.9002097108571154	-0.7238402475082081	0.0	0.8855288915790894	-0.8102365228794975	0.0	0.9036721531839589	-0.8233668836590813	0.0	0.8986563682972041	-0.8233398519748014	0.0	0.8770123726025801	-0.8168585158090759	0.0	0.8940017232965617	-0.4829015891075109	0.0	0.8931819164643855	-0.4332712569195688	0.0	0.9144339703350167	-0.4517581762376956	0.0	0.8939846844434206	-0.4926815154264368	0.0	0.9182809412181322	-0.4502808062518909	0.0	0.9341208777617636	-0.40299986826180234	0.0	0.8889867849185441	-0.4921282876204952	0.0	0.9162634645242512	-0.4633210506569804	0.0	0.9380174256415348	-0.4300367596535946	0.0
